#Comment line ignore any data following # character 
#Hierarchical Translation and Rotation (.htr) file 
[Header]	
#Header keywords are followed by a single value 
FileType HTR		#Single word string
DataType HTRS		#Translation followed by rotation and scale data
FileVersion 1		#integer
NumSegments 84		#integer
NumFrames 2		#integer
DataFrameRate 30		#integer, data frame rate in this file
EulerRotationOrder ZYX
CalibrationUnits mm
RotationUnits Degrees
GlobalAxisofGravity Y
BoneLengthAxis Y
ScaleFactor 1.00
[SegmentNames&Hierarchy]
#CHILD	PARENT
MASTER GLOBAL
root MASTER
chest root
L_mid_tent01 root
R_mid_tent01 root
spine01 root
Bip01_Neck chest
L_humerus chest
R_humerus chest
weapon_bone chest
Bip01_Head Bip01_Neck
eye_left_bone Bip01_Head
eye_right_bone Bip01_Head
L_forearm L_humerus
L_front_hand L_forearm
L_weapon_bone L_forearm
L_front_hand01_01 L_front_hand
L_front_hand02_01 L_front_hand
L_front_hand03_01 L_front_hand
L_front_hand01_02 L_front_hand01_01
L_front_hand02_02 L_front_hand02_01
L_front_hand03_02 L_front_hand03_01
R_forearm R_humerus
R_front_hand R_forearm
R_weapon_bone R_forearm
R_front_hand01_01 R_front_hand
R_front_hand02_01 R_front_hand
R_front_hand03_01 R_front_hand
R_front_hand01_02 R_front_hand01_01
R_front_hand02_02 R_front_hand02_01
R_front_hand03_02 R_front_hand03_01
null_rope01_connect L_mid_tent01
Rope1_Seg01 null_rope01_connect
Rope1_Seg02 Rope1_Seg01
Rope1_Seg03 Rope1_Seg02
Rope1_Seg04 Rope1_Seg03
Rope1_Seg05 Rope1_Seg04
Rope1_Seg06 Rope1_Seg05
Rope1_Seg07 Rope1_Seg06
Rope1_Seg09 Rope1_Seg07
L_mid_hand01 Rope1_Seg09
L_mid_hand02 Rope1_Seg09
L_mid_hand03 Rope1_Seg09
null_rope02_connect R_mid_tent01
Rope2_Seg01 null_rope02_connect
Rope2_Seg02 Rope2_Seg01
Rope2_Seg03 Rope2_Seg02
Rope2_Seg04 Rope2_Seg03
Rope2_Seg05 Rope2_Seg04
Rope2_Seg06 Rope2_Seg05
Rope2_Seg07 Rope2_Seg06
Rope2_Seg09 Rope2_Seg07
R_mid_hand01 Rope2_Seg09
R_mid_hand02 Rope2_Seg09
R_mid_hand03 Rope2_Seg09
spine02 spine01
spine03 spine02
pelvis spine03
null_rope03_connect pelvis
null_rope04_connect pelvis
Rope3_Seg01 null_rope03_connect
Rope3_Seg02 Rope3_Seg01
Rope3_Seg03 Rope3_Seg02
Rope3_Seg04 Rope3_Seg03
Rope3_Seg05 Rope3_Seg04
Rope3_Seg06 Rope3_Seg05
Rope3_Seg07 Rope3_Seg06
Rope3_Seg08 Rope3_Seg07
Rope3_Seg09 Rope3_Seg08
R_rear_hand01 Rope3_Seg09
R_rear_hand02 Rope3_Seg09
R_rear_hand03 Rope3_Seg09
Rope4_Seg01 null_rope04_connect
Rope4_Seg02 Rope4_Seg01
Rope4_Seg03 Rope4_Seg02
Rope4_Seg04 Rope4_Seg03
Rope4_Seg05 Rope4_Seg04
Rope4_Seg06 Rope4_Seg05
Rope4_Seg07 Rope4_Seg06
Rope4_Seg08 Rope4_Seg07
Rope4_Seg09 Rope4_Seg08
L_rear_hand01 Rope4_Seg09
L_rear_hand02 Rope4_Seg09
L_rear_hand03 Rope4_Seg09
[BasePosition]
#SegmentName Tx, Ty, Tz, Rx, Ry, Rz, BoneLength
MASTER 0.000000 0.000000 0.000000 -90.000000 0.000000 0.000000 10.000000 
root 0.000000 0.000000 0.000000 0.000000 0.000000 0.000000 10.000000 
chest 0.000000 0.000000 0.000000 0.000000 0.000000 0.000000 10.000000 
L_mid_tent01 0.000000 0.000000 0.000000 0.000000 0.000000 0.000000 10.000000 
R_mid_tent01 0.000000 0.000000 0.000000 0.000000 0.000000 0.000000 10.000000 
spine01 0.000000 0.000000 0.000000 0.000000 0.000000 0.000000 10.000000 
Bip01_Neck 0.000000 0.000000 0.000000 0.000000 0.000000 0.000000 10.000000 
L_humerus 0.000000 0.000000 0.000000 0.000000 0.000000 0.000000 10.000000 
R_humerus 0.000000 0.000000 0.000000 0.000000 0.000000 0.000000 10.000000 
weapon_bone 0.000000 0.000000 0.000000 0.000000 0.000000 0.000000 10.000000 
Bip01_Head 0.000000 0.000000 0.000000 0.000000 0.000000 0.000000 10.000000 
eye_left_bone 0.000000 0.000000 0.000000 0.000000 0.000000 0.000000 10.000000 
eye_right_bone 0.000000 0.000000 0.000000 0.000000 0.000000 0.000000 10.000000 
L_forearm 0.000000 0.000000 0.000000 0.000000 0.000000 0.000000 10.000000 
L_front_hand 0.000000 0.000000 0.000000 0.000000 0.000000 0.000000 10.000000 
L_weapon_bone 0.000000 0.000000 0.000000 0.000000 0.000000 0.000000 10.000000 
L_front_hand01_01 0.000000 0.000000 0.000000 0.000000 0.000000 0.000000 10.000000 
L_front_hand02_01 0.000000 0.000000 0.000000 0.000000 0.000000 0.000000 10.000000 
L_front_hand03_01 0.000000 0.000000 0.000000 0.000000 0.000000 0.000000 10.000000 
L_front_hand01_02 0.000000 0.000000 0.000000 0.000000 0.000000 0.000000 10.000000 
L_front_hand02_02 0.000000 0.000000 0.000000 0.000000 0.000000 0.000000 10.000000 
L_front_hand03_02 0.000000 0.000000 0.000000 0.000000 0.000000 0.000000 10.000000 
R_forearm 0.000000 0.000000 0.000000 0.000000 0.000000 0.000000 10.000000 
R_front_hand 0.000000 0.000000 0.000000 0.000000 0.000000 0.000000 10.000000 
R_weapon_bone 0.000000 0.000000 0.000000 0.000000 0.000000 0.000000 10.000000 
R_front_hand01_01 0.000000 0.000000 0.000000 0.000000 0.000000 0.000000 10.000000 
R_front_hand02_01 0.000000 0.000000 0.000000 0.000000 0.000000 0.000000 10.000000 
R_front_hand03_01 0.000000 0.000000 0.000000 0.000000 0.000000 0.000000 10.000000 
R_front_hand01_02 0.000000 0.000000 0.000000 0.000000 0.000000 0.000000 10.000000 
R_front_hand02_02 0.000000 0.000000 0.000000 0.000000 0.000000 0.000000 10.000000 
R_front_hand03_02 0.000000 0.000000 0.000000 0.000000 0.000000 0.000000 10.000000 
null_rope01_connect 0.000000 0.000000 0.000000 0.000000 0.000000 0.000000 10.000000 
Rope1_Seg01 0.000000 0.000000 0.000000 0.000000 0.000000 0.000000 10.000000 
Rope1_Seg02 0.000000 0.000000 0.000000 0.000000 0.000000 0.000000 10.000000 
Rope1_Seg03 0.000000 0.000000 0.000000 0.000000 0.000000 0.000000 10.000000 
Rope1_Seg04 0.000000 0.000000 0.000000 0.000000 0.000000 0.000000 10.000000 
Rope1_Seg05 0.000000 0.000000 0.000000 0.000000 0.000000 0.000000 10.000000 
Rope1_Seg06 0.000000 0.000000 0.000000 0.000000 0.000000 0.000000 10.000000 
Rope1_Seg07 0.000000 0.000000 0.000000 0.000000 0.000000 0.000000 10.000000 
Rope1_Seg09 0.000000 0.000000 0.000000 0.000000 0.000000 0.000000 10.000000 
L_mid_hand01 0.000000 0.000000 0.000000 0.000000 0.000000 0.000000 10.000000 
L_mid_hand02 0.000000 0.000000 0.000000 0.000000 0.000000 0.000000 10.000000 
L_mid_hand03 0.000000 0.000000 0.000000 0.000000 0.000000 0.000000 10.000000 
null_rope02_connect 0.000000 0.000000 0.000000 0.000000 0.000000 0.000000 10.000000 
Rope2_Seg01 0.000000 0.000000 0.000000 0.000000 0.000000 0.000000 10.000000 
Rope2_Seg02 0.000000 0.000000 0.000000 0.000000 0.000000 0.000000 10.000000 
Rope2_Seg03 0.000000 0.000000 0.000000 0.000000 0.000000 0.000000 10.000000 
Rope2_Seg04 0.000000 0.000000 0.000000 0.000000 0.000000 0.000000 10.000000 
Rope2_Seg05 0.000000 0.000000 0.000000 0.000000 0.000000 0.000000 10.000000 
Rope2_Seg06 0.000000 0.000000 0.000000 0.000000 0.000000 0.000000 10.000000 
Rope2_Seg07 0.000000 0.000000 0.000000 0.000000 0.000000 0.000000 10.000000 
Rope2_Seg09 0.000000 0.000000 0.000000 0.000000 0.000000 0.000000 10.000000 
R_mid_hand01 0.000000 0.000000 0.000000 0.000000 0.000000 0.000000 10.000000 
R_mid_hand02 0.000000 0.000000 0.000000 0.000000 0.000000 0.000000 10.000000 
R_mid_hand03 0.000000 0.000000 0.000000 0.000000 0.000000 0.000000 10.000000 
spine02 0.000000 0.000000 0.000000 0.000000 0.000000 0.000000 10.000000 
spine03 0.000000 0.000000 0.000000 0.000000 0.000000 0.000000 10.000000 
pelvis 0.000000 0.000000 0.000000 0.000000 0.000000 0.000000 10.000000 
null_rope03_connect 0.000000 0.000000 0.000000 0.000000 0.000000 0.000000 10.000000 
null_rope04_connect 0.000000 0.000000 0.000000 0.000000 0.000000 0.000000 10.000000 
Rope3_Seg01 0.000000 0.000000 0.000000 0.000000 0.000000 0.000000 10.000000 
Rope3_Seg02 0.000000 0.000000 0.000000 0.000000 0.000000 0.000000 10.000000 
Rope3_Seg03 0.000000 0.000000 0.000000 0.000000 0.000000 0.000000 10.000000 
Rope3_Seg04 0.000000 0.000000 0.000000 0.000000 0.000000 0.000000 10.000000 
Rope3_Seg05 0.000000 0.000000 0.000000 0.000000 0.000000 0.000000 10.000000 
Rope3_Seg06 0.000000 0.000000 0.000000 0.000000 0.000000 0.000000 10.000000 
Rope3_Seg07 0.000000 0.000000 0.000000 0.000000 0.000000 0.000000 10.000000 
Rope3_Seg08 0.000000 0.000000 0.000000 0.000000 0.000000 0.000000 10.000000 
Rope3_Seg09 0.000000 0.000000 0.000000 0.000000 0.000000 0.000000 10.000000 
R_rear_hand01 0.000000 0.000000 0.000000 0.000000 0.000000 0.000000 10.000000 
R_rear_hand02 0.000000 0.000000 0.000000 0.000000 0.000000 0.000000 10.000000 
R_rear_hand03 0.000000 0.000000 0.000000 0.000000 0.000000 0.000000 10.000000 
Rope4_Seg01 0.000000 0.000000 0.000000 0.000000 0.000000 0.000000 10.000000 
Rope4_Seg02 0.000000 0.000000 0.000000 0.000000 0.000000 0.000000 10.000000 
Rope4_Seg03 0.000000 0.000000 0.000000 0.000000 0.000000 0.000000 10.000000 
Rope4_Seg04 0.000000 0.000000 0.000000 0.000000 0.000000 0.000000 10.000000 
Rope4_Seg05 0.000000 0.000000 0.000000 0.000000 0.000000 0.000000 10.000000 
Rope4_Seg06 0.000000 0.000000 0.000000 0.000000 0.000000 0.000000 10.000000 
Rope4_Seg07 0.000000 0.000000 0.000000 0.000000 0.000000 0.000000 10.000000 
Rope4_Seg08 0.000000 0.000000 0.000000 0.000000 0.000000 0.000000 10.000000 
Rope4_Seg09 0.000000 0.000000 0.000000 0.000000 0.000000 0.000000 10.000000 
L_rear_hand01 0.000000 0.000000 0.000000 0.000000 0.000000 0.000000 10.000000 
L_rear_hand02 0.000000 0.000000 0.000000 0.000000 0.000000 0.000000 10.000000 
L_rear_hand03 0.000000 0.000000 0.000000 0.000000 0.000000 0.000000 10.000000 
#Beginning of Data. Separated by tabs
#Fr	Tx	Ty	Tz	Rx	Ry	Rz	SF
[MASTER]
3 0.000003 -0.000096 -57.700890 0.001660 0.001660 0.001660 57.700890
4 0.000003 -0.000096 -115.368073 0.001660 0.001660 0.001660 115.368073
[root]
3 -16.502296 -32.757965 1477.045044 -67.405846 -12.401163 -81.745354 1477.500366
4 -16.502296 -32.295719 1476.149048 -69.126839 -12.478799 -82.389107 1476.594604
[chest]
3 -84.512650 -34.090519 0.000000 -135.575500 4.381467 141.606186 91.129311
4 -84.512650 -34.090519 0.000000 -126.483902 5.324502 143.522583 91.129311
[L_mid_tent01]
3 27.299301 22.178371 -249.918503 -164.693741 42.565990 -70.544647 252.381439
4 27.299299 22.178385 -249.918503 -163.014465 44.975323 -69.709984 252.381439
[R_mid_tent01]
3 23.228794 24.509907 226.238495 -129.503952 -81.774193 17.910168 228.744751
4 23.228794 24.509907 226.238495 -131.463959 -81.816360 20.046259 228.744751
[spine01]
3 -0.361383 -0.195265 0.000000 0.002062 0.001122 32.879829 0.410763
4 -0.361383 -0.195265 0.000000 0.002062 0.001122 32.879829 0.410763
[Bip01_Neck]
3 165.484543 71.581718 0.000119 176.643677 -1.657966 43.431911 180.302734
4 165.484543 71.581718 0.000119 176.643677 -1.657966 43.431908 180.302734
[L_humerus]
3 -13.983130 -135.272980 -120.471481 169.840668 66.218224 -99.535027 181.680161
4 -13.983130 -135.272980 -120.471481 168.949707 66.531326 -100.765915 181.680161
[R_humerus]
3 -13.983309 -135.273102 125.287651 -179.574051 -70.787888 -81.103142 184.909012
4 -13.983309 -135.273102 125.287651 -178.828003 -70.922859 -82.431229 184.909012
[weapon_bone]
3 235.964890 -300.705902 0.000000 0.000000 -89.951546 -128.212341 382.234833
4 235.964890 -300.705902 0.000000 0.000000 -89.951546 -128.212341 382.234833
[Bip01_Head]
3 213.342194 185.953735 8.701995 23.890919 5.229049 -43.852047 283.142029
4 213.340607 185.962524 8.588357 24.725868 5.321748 -43.851341 283.143127
[eye_left_bone]
3 -24.626970 125.451866 -64.772606 0.000000 -90.000000 -99.840431 143.318359
4 -24.626970 125.451866 -64.772606 0.000000 -90.000000 -99.840431 143.318359
[eye_right_bone]
3 -24.626970 125.451866 64.327362 0.000000 -89.965736 80.156380 143.117676
4 -24.626970 125.451866 64.327362 0.000000 -89.965736 80.156380 143.117676
[L_forearm]
3 322.776093 0.000000 -0.000119 0.000272 -0.002331 -103.321930 322.776093
4 322.776093 0.000000 -0.000119 0.000265 -0.002332 -102.952103 322.776093
[L_front_hand]
3 241.149185 -0.042021 -3.300071 -178.427841 -1.634866 -35.300926 241.171753
4 241.149185 -0.042021 -3.300071 -178.435791 -1.642555 -35.020851 241.171753
[L_weapon_bone]
3 156.183838 0.000000 0.000000 0.000014 0.000007 0.000001 156.183838
4 156.183838 0.000000 0.000000 0.000014 0.000007 0.000001 156.183838
[L_front_hand01_01]
3 86.095154 20.947098 -0.655860 -0.328128 -0.503051 70.952293 88.609184
4 86.095154 20.947098 -0.655860 -0.335131 -0.500211 71.723778 88.609184
[L_front_hand02_01]
3 86.935165 -11.437475 24.513514 147.990921 -57.746967 -53.876896 91.046425
4 86.935165 -11.437475 24.513514 149.028961 -58.148323 -55.100948 91.046425
[L_front_hand03_01]
3 86.637497 -14.123976 -20.424902 -147.937454 55.962566 -55.583706 90.126129
4 86.637497 -14.123976 -20.424902 -148.918808 56.366669 -56.764694 90.126129
[L_front_hand01_02]
3 71.020905 -0.000179 0.000030 0.000320 -0.002325 -105.679993 71.020905
4 71.020905 -0.000179 0.000030 0.000321 -0.002325 -105.732719 71.020905
[L_front_hand02_02]
3 71.020927 -0.000119 0.000060 0.000320 -0.002325 -105.679993 71.020927
4 71.020927 -0.000119 0.000060 0.000321 -0.002325 -105.732719 71.020927
[L_front_hand03_02]
3 71.020905 -0.000060 0.000060 0.000320 -0.002325 -105.679993 71.020905
4 71.020905 -0.000060 0.000060 0.000321 -0.002325 -105.732719 71.020905
[R_forearm]
3 322.776428 -0.000060 0.000030 0.210874 0.035634 -101.065575 322.776428
4 322.776428 -0.000060 0.000030 0.210980 0.035001 -100.721985 322.776428
[R_front_hand]
3 238.847015 -0.006795 2.210259 -0.885302 -10.927077 -35.635826 238.857239
4 238.847015 -0.006795 2.210259 -0.949229 -10.921762 -35.303814 238.857239
[R_weapon_bone]
3 155.664093 0.002503 -0.000030 0.003487 0.001180 -90.988930 155.664078
4 155.664093 0.002503 -0.000030 0.003487 0.001180 -90.988930 155.664078
[R_front_hand01_01]
3 87.624611 14.231146 22.918642 -150.319717 -58.611870 56.726910 91.683487
4 87.624611 14.231146 22.918642 -151.998245 -59.169315 58.688122 91.683487
[R_front_hand02_01]
3 89.356956 14.367283 -19.491137 150.553192 56.974068 58.956409 92.579636
4 89.356956 14.367283 -19.491137 152.130127 57.525928 60.828335 92.579636
[R_front_hand03_01]
3 87.286232 -22.307278 -0.143439 0.140549 -0.429018 -72.881996 90.091743
4 87.286232 -22.307278 -0.143439 0.147862 -0.431521 -74.042168 90.091743
[R_front_hand01_02]
3 71.020905 0.000060 0.000119 0.002323 -0.000334 106.381721 71.020905
4 71.020905 0.000060 0.000119 0.002323 -0.000334 106.381706 71.020905
[R_front_hand02_02]
3 71.020844 -0.000030 -0.000119 0.002323 -0.000334 106.381721 71.020836
4 71.020844 -0.000030 -0.000119 0.002323 -0.000334 106.381706 71.020836
[R_front_hand03_02]
3 71.020905 0.000000 0.000030 0.002323 -0.000334 106.381721 71.020905
4 71.020905 0.000000 0.000030 0.002323 -0.000334 106.381706 71.020905
[null_rope01_connect]
3 328.732483 0.000000 -0.000238 -162.496368 20.413042 -156.501938 328.732483
4 328.732483 0.000000 -0.000238 -162.325943 19.590210 -157.076874 328.732483
[Rope1_Seg01]
3 0.000003 -0.000056 0.000014 -2.617299 5.800196 -160.678452 0.000058
4 0.000005 -0.000056 0.000021 -2.452179 6.925019 -161.558487 0.000060
[Rope1_Seg02]
3 139.999863 -0.000179 0.000000 -10.525922 -9.919397 -10.096470 139.999863
4 139.999863 -0.000179 0.000000 -10.623763 -10.885569 -10.157001 139.999863
[Rope1_Seg03]
3 139.999924 0.000060 -0.000060 -9.288349 -6.840075 -16.781534 139.999924
4 139.999924 0.000060 -0.000060 -9.841210 -8.610954 -17.280212 139.999924
[Rope1_Seg04]
3 139.999924 -0.000060 -0.000119 -5.986524 -6.074954 -17.612223 139.999924
4 139.999924 -0.000060 -0.000119 -5.965317 -6.288650 -17.799677 139.999924
[Rope1_Seg05]
3 139.999832 0.000119 -0.000060 -6.676227 -26.042692 -20.238012 139.999832
4 139.999832 0.000119 -0.000060 -6.236489 -22.726759 -17.365505 139.999832
[Rope1_Seg06]
3 139.999954 0.000119 -0.000060 -4.517014 -13.077448 -13.770495 139.999954
4 139.999954 0.000119 -0.000060 -4.607740 -13.320105 -12.755239 139.999954
[Rope1_Seg07]
3 139.999985 0.000060 0.000000 -1.910862 -4.511158 -6.698896 139.999985
4 139.999985 0.000060 0.000000 -2.110874 -4.835145 -6.686026 139.999985
[Rope1_Seg09]
3 121.602913 0.000119 -0.000089 -89.793175 -1.359789 0.847147 121.602913
4 121.602913 0.000119 -0.000089 -89.793175 -1.359789 0.847147 121.602913
[L_mid_hand01]
3 103.859421 1.038730 8.195221 130.544342 -67.584496 -38.866920 104.187431
4 103.859421 1.038730 8.195221 130.544373 -67.584518 -38.866947 104.187431
[L_mid_hand02]
3 105.572853 -4.139662 -10.864139 -168.923172 43.409309 -73.498901 106.211075
4 105.572853 -4.139662 -10.864139 -168.923172 43.409309 -73.498894 106.211075
[L_mid_hand03]
3 104.641464 17.579376 -3.913581 -6.012627 17.808176 74.893669 106.179977
4 104.641464 17.579376 -3.913581 -6.012627 17.808176 74.893669 106.179977
[null_rope02_connect]
3 328.732849 0.000179 -0.000119 -147.765823 -20.353882 -7.457011 328.732849
4 328.732849 0.000179 -0.000119 -147.658417 -18.232405 -7.134229 328.732849
[Rope2_Seg01]
3 -0.000068 0.000099 0.000000 84.184616 31.508982 21.431517 0.000119
4 -0.000063 0.000099 0.000000 82.520638 33.467270 19.270464 0.000117
[Rope2_Seg02]
3 139.999741 -0.000060 -0.000119 2.544891 4.074952 10.546329 139.999756
4 139.999741 -0.000060 -0.000119 2.374056 3.940665 9.468516 139.999756
[Rope2_Seg03]
3 140.000107 0.000030 0.000000 6.707163 9.711551 22.933437 140.000107
4 140.000107 0.000030 0.000000 6.299487 9.430078 21.416683 140.000107
[Rope2_Seg04]
3 139.999802 0.000000 -0.000060 10.824155 17.849783 34.676678 139.999802
4 139.999802 0.000000 -0.000060 12.222458 18.070524 38.138367 139.999802
[Rope2_Seg05]
3 139.999985 -0.000060 0.000119 3.210813 10.439993 19.547949 139.999985
4 139.999985 -0.000060 0.000119 2.695658 14.086941 16.277233 139.999985
[Rope2_Seg06]
3 139.999893 -0.000030 -0.000119 1.495693 6.611474 14.463621 139.999893
4 139.999893 -0.000030 -0.000119 -0.152656 10.979614 9.577394 139.999893
[Rope2_Seg07]
3 139.999893 0.000060 -0.000060 0.696507 4.983703 9.100777 139.999893
4 139.999893 0.000060 -0.000060 -1.168511 7.216517 7.580397 139.999893
[Rope2_Seg09]
3 121.338966 0.000089 -0.000060 33.793236 -1.359788 -0.847141 121.338966
4 121.338966 0.000089 -0.000060 33.793236 -1.359788 -0.847141 121.338966
[R_mid_hand01]
3 104.680779 11.144459 -10.335981 -16.212059 45.237247 70.462852 105.778534
4 104.680779 11.144459 -10.335981 -16.212063 45.237240 70.462845 105.778534
[R_mid_hand02]
3 104.070427 2.443552 8.231699 49.067371 -67.749794 39.286461 104.424065
4 104.070427 2.443552 8.231699 49.067371 -67.749794 39.286461 104.424065
[R_mid_hand03]
3 106.028137 -11.221827 -5.996406 -177.101105 15.551026 -76.585571 106.788818
4 106.028137 -11.221827 -5.996406 -177.101105 15.551026 -76.585571 106.788818
[spine02]
3 129.756927 0.001550 0.000119 -1.176215 -4.295884 8.886807 129.756927
4 129.756927 0.001550 0.000119 -1.180543 -4.281318 8.964965 129.756927
[spine03]
3 78.613937 0.084336 -4.898952 0.937284 4.929782 2.914553 78.766479
4 78.613937 0.084275 -4.898952 0.933620 4.904455 2.867613 78.766479
[pelvis]
3 169.435242 0.051022 0.000000 0.023161 0.113940 -13.385404 169.435257
4 169.435242 0.051022 0.000000 0.024221 0.104139 -13.486651 169.435257
[null_rope03_connect]
3 -1.257226 -2.466202 137.391083 29.714397 -65.304710 39.883385 137.418976
4 -1.257226 -2.466202 137.391083 29.940083 -67.229263 40.050968 137.418976
[null_rope04_connect]
3 -1.259640 -2.480268 -137.844437 29.714397 -65.304710 39.883385 137.872513
4 -1.259640 -2.480268 -137.844437 29.940083 -67.229263 40.050968 137.872513
[Rope3_Seg01]
3 -0.000001 0.000002 -0.000132 14.547422 -3.253894 -55.141483 0.000132
4 -0.000002 0.000003 -0.000121 14.308204 -4.022110 -55.340218 0.000121
[Rope3_Seg02]
3 139.999924 -0.000119 0.000060 -2.196193 -5.546753 2.326873 139.999924
4 139.999924 -0.000119 0.000060 -2.157874 -5.576978 2.340466 139.999924
[Rope3_Seg03]
3 139.999924 -0.000119 0.000119 -3.266638 -8.939448 3.393953 139.999924
4 139.999924 -0.000119 0.000119 -3.151401 -8.829230 3.361712 139.999924
[Rope3_Seg04]
3 139.999924 0.000119 0.000000 -5.073698 -16.255695 5.513787 139.999924
4 139.999924 0.000119 0.000000 -4.816217 -15.644423 5.411707 139.999924
[Rope3_Seg05]
3 139.999924 -0.000238 0.000060 -5.963436 -30.140806 9.461237 139.999924
4 139.999924 -0.000238 0.000060 -5.853887 -28.489538 9.393538 139.999924
[Rope3_Seg06]
3 139.999893 -0.000119 -0.000060 0.853246 -14.944143 0.847504 139.999893
4 139.999893 -0.000119 -0.000060 0.672814 -13.887191 0.298386 139.999893
[Rope3_Seg07]
3 139.999771 0.000060 -0.000119 0.265214 -0.464205 -3.976589 139.999771
4 139.999771 0.000060 -0.000119 0.148724 0.151491 -4.831522 139.999771
[Rope3_Seg08]
3 139.999985 -0.000060 0.000000 0.978123 -3.380016 -1.397838 139.999985
4 139.999985 -0.000060 0.000000 0.865695 -3.042053 -1.792629 139.999985
[Rope3_Seg09]
3 90.185997 -0.000179 -0.000060 89.793228 -1.359877 -0.847183 90.185997
4 90.185997 -0.000179 -0.000060 89.793228 -1.359877 -0.847183 90.185997
[R_rear_hand01]
3 103.366196 -6.073594 -10.757982 -177.714188 24.565962 -73.910950 104.101845
4 103.366196 -6.073594 -10.757982 -177.714203 24.565966 -73.910950 104.101845
[R_rear_hand02]
3 100.509819 12.039542 -7.992327 -12.874834 36.868492 72.167213 101.543350
4 100.509819 12.039542 -7.992327 -12.874827 36.868481 72.167213 101.543350
[R_rear_hand03]
3 101.539970 5.215704 5.435467 71.484581 -71.816628 21.513813 101.819031
4 101.539970 5.215704 5.435467 71.484573 -71.816597 21.513800 101.819031
[Rope4_Seg01]
3 0.000000 0.000000 0.000000 -97.129181 -15.775785 -112.330536 0.000000
4 0.000000 0.000000 0.000000 -96.826324 -16.217339 -113.052612 0.000000
[Rope4_Seg02]
3 139.999985 0.000060 0.000119 0.476670 2.315972 -7.141386 139.999985
4 139.999985 0.000060 0.000119 0.565533 2.350372 -7.788898 139.999985
[Rope4_Seg03]
3 139.999924 0.000000 -0.000238 0.367570 2.798961 -8.972753 139.999924
4 139.999924 0.000000 -0.000238 0.404434 2.765701 -9.617173 139.999924
[Rope4_Seg04]
3 139.999985 0.000000 0.000119 0.106791 3.965903 -10.570063 139.999985
4 139.999985 0.000000 0.000119 0.089812 3.960243 -10.789327 139.999985
[Rope4_Seg05]
3 139.999802 -0.000060 -0.000119 -0.053971 4.258737 -10.422668 139.999802
4 139.999802 -0.000060 -0.000119 -0.069659 3.630725 -10.217197 139.999802
[Rope4_Seg06]
3 139.999924 0.000000 0.000060 -0.191772 0.767471 -11.766570 139.999924
4 139.999924 0.000000 0.000060 -0.313417 0.157457 -12.093685 139.999924
[Rope4_Seg07]
3 139.999802 0.000000 0.000000 -1.558333 -2.307503 -17.043301 139.999802
4 139.999802 0.000000 0.000000 -1.897266 -2.435648 -17.155596 139.999802
[Rope4_Seg08]
3 139.999924 0.000000 0.000119 -4.943295 -0.444068 -14.068608 139.999924
4 139.999924 0.000000 0.000119 -4.992842 -0.349732 -13.145433 139.999924
[Rope4_Seg09]
3 90.185791 0.000060 0.000060 -135.617828 2.228885 0.850567 90.185791
4 90.185791 0.000060 0.000060 -135.617828 2.228885 0.850567 90.185791
[L_rear_hand01]
3 101.696655 -8.392275 -7.654577 -12.874834 -36.868492 107.832764 102.329041
4 101.696655 -8.392275 -7.654577 -12.874827 -36.868481 107.832756 102.329041
[L_rear_hand02]
3 102.726799 -1.568258 5.773216 71.484581 71.816628 158.486160 102.900848
4 102.726799 -1.568258 5.773216 71.484573 71.816597 158.486160 102.900848
[L_rear_hand03]
3 104.552910 9.721220 -10.420293 -177.714188 -24.565962 -106.089035 105.519653
4 104.552910 9.721220 -10.420293 -177.714203 -24.565966 -106.089035 105.519653
